PathFileType	4	(X/Y/Z)	C:/Users/opensim2020/Desktop/walking_exp_matlab/subject02_walking10_straight_03.trc	
DataRate	CameraRate	NumFrames	NumMarkers	Units	OrigDataRate	OrigDataStartFrame	OrigNumFrames	
100.00	100.00	4	43	mm	100.00	2190	270	
Frame#	Time	LFHD			RFHD			LBHD			RBHD			C7			T10			CLAV			STRN			RBAK			LSHO			LUPA			LELB			LFRM			LWRA			LWRB			LFIN			RSHO			RUPA			RELB			RFRM			RWRA			RWRB			RFIN			LASI			RASI			LPSI			RPSI			LTHI			LKNE			LTIB			LANK			LHEE			LTOE			RTHI			RKNE			RTIB			RANK			RHEE			RTOE			*39			*40			*41			*42			
		X1	Y1	Z1	X2	Y2	Z2	X3	Y3	Z3	X4	Y4	Z4	X5	Y5	Z5	X6	Y6	Z6	X7	Y7	Z7	X8	Y8	Z8	X9	Y9	Z9	X10	Y10	Z10	X11	Y11	Z11	X12	Y12	Z12	X13	Y13	Z13	X14	Y14	Z14	X15	Y15	Z15	X16	Y16	Z16	X17	Y17	Z17	X18	Y18	Z18	X19	Y19	Z19	X20	Y20	Z20	X21	Y21	Z21	X22	Y22	Z22	X23	Y23	Z23	X24	Y24	Z24	X25	Y25	Z25	X26	Y26	Z26	X27	Y27	Z27	X28	Y28	Z28	X29	Y29	Z29	X30	Y30	Z30	X31	Y31	Z31	X32	Y32	Z32	X33	Y33	Z33	X34	Y34	Z34	X35	Y35	Z35	X36	Y36	Z36	X37	Y37	Z37	X38	Y38	Z38	X39	Y39	Z39	X40	Y40	Z40	X41	Y41	Z41	X42	Y42	Z42	X43	Y43	Z43	

1	0.000	1357.71619	-1030.64941	1729.54980	1501.08740	-1039.62964	1713.90564	1343.82776	-1165.86792	1665.94922	1485.17480	-1187.49915	1649.37512	1410.10034	-1232.80481	1526.37805	1408.43384	-1294.87903	1251.81042	1408.86401	-1096.24670	1455.68774	1422.75940	-1048.56482	1283.06897	1470.84680	-1300.27478	1353.11365	1235.69495	-1149.01343	1499.51013	1148.19067	-1135.66113	1299.95081	1134.48950	-1114.02637	1159.20020	1129.83813	-1070.20117	1033.56946	1176.26770	-990.14038	929.02539	1136.39832	-1028.85327	918.44653	1138.11548	-991.38837	863.31042	1601.08850	-1168.57458	1490.90588	1686.40674	-1195.85901	1300.99487	1708.61829	-1174.18909	1155.53967	1726.77502	-1122.08020	1046.46704	1704.65552	-1046.00916	935.09766	1734.69189	-1090.59631	919.13733	1738.50464	-1038.65076	869.03052	1294.41211	-1057.92566	984.07587	1548.52966	-1082.02039	977.05066	1354.95239	-1272.91101	1030.63940	1469.48621	-1289.42322	1032.37268	1260.76111	-1119.67358	667.45856	1303.12292	-1156.96594	467.75439	1313.05615	-1213.95935	280.34369	1368.97473	-1214.47803	61.61072	1419.00464	-1255.01660	34.83877	1370.49109	-1058.83484	28.29475	1648.13904	-1141.36304	683.14948	1647.15991	-1111.58728	480.02075	1632.12439	-1211.56104	323.88156	1590.83252	-1281.13611	145.52164	1523.84143	-1303.55530	94.80206	1665.48181	-1181.06958	47.23843	1441.80396	-1129.71521	1805.40857	-3360.39209	2845.18188	1034.03650						 
2	0.010	1358.11267	-1024.57056	1729.77942	1501.59509	-1033.71130	1713.73108	1344.13416	-1159.98926	1666.24536	1485.47571	-1181.63135	1649.24658	1410.51746	-1226.69739	1526.32629	1409.48779	-1288.89502	1251.82813	1408.69775	-1090.22400	1455.57446	1422.00330	-1042.76062	1282.86462	1471.64929	-1294.32922	1353.33752	1235.79065	-1143.50488	1499.62390	1148.18103	-1128.22070	1300.41968	1134.63416	-1104.07361	1159.75879	1130.22546	-1057.62512	1035.22253	1177.13257	-975.12451	933.10144	1137.19885	-1013.26538	920.92041	1139.49695	-974.86761	866.77472	1601.25244	-1161.80444	1490.61426	1686.47168	-1189.59741	1300.78821	1708.87598	-1168.28870	1155.40454	1727.13635	-1116.26416	1046.22290	1705.12024	-1040.14014	934.75098	1735.06299	-1084.89172	918.72595	1738.94189	-1032.90405	868.73029	1293.99487	-1053.03357	983.67706	1548.30420	-1074.83191	977.18921	1356.52148	-1267.81323	1030.62268	1471.16541	-1283.15442	1032.34216	1261.04248	-1117.18481	667.38641	1303.58582	-1155.17102	467.78229	1313.56238	-1212.98999	280.59436	1369.36328	-1214.51172	61.72410	1419.20740	-1255.33984	35.46233	1370.39954	-1058.73730	28.19953	1648.51538	-1129.48499	683.77057	1646.67261	-1097.20618	480.71063	1634.37000	-1192.89771	321.31738	1595.24194	-1257.65393	140.48306	1529.17041	-1280.14673	88.58990	1668.21545	-1152.76904	46.36072	1442.45496	-1123.75830	1805.35938	-3360.35547	2845.13403	1034.14954						 
3	0.020	1358.71545	-1018.45142	1729.59753	1502.32178	-1027.76025	1713.31580	1344.48779	-1153.86279	1666.31543	1485.80481	-1175.62622	1649.03625	1411.07031	-1220.66321	1526.39270	1410.58545	-1282.90833	1251.84082	1408.65662	-1084.19861	1455.32336	1421.61060	-1036.56580	1282.65833	1472.31604	-1287.94568	1353.15076	1235.98181	-1137.92920	1499.67639	1148.04553	-1121.60388	1300.89722	1134.44690	-1094.83508	1160.60010	1130.46716	-1045.49805	1036.91077	1178.04980	-960.64807	936.80798	1138.24585	-998.71118	923.63702	1140.74536	-958.64862	870.43097	1601.48438	-1154.96008	1490.23669	1686.64001	-1183.21045	1300.44873	1709.09912	-1162.11768	1154.98364	1727.30774	-1110.34607	1045.75208	1705.43579	-1034.66357	934.18427	1735.31104	-1079.31812	918.26721	1739.48071	-1027.40381	868.28497	1293.24622	-1049.81226	982.78723	1548.08972	-1067.73511	977.22046	1358.12134	-1262.64905	1030.53137	1472.82458	-1276.93213	1032.25305	1261.60620	-1114.23718	666.78265	1304.12048	-1153.10535	467.63599	1314.18262	-1212.05127	280.90497	1369.51807	-1214.30640	61.82614	1419.47534	-1255.21838	35.60548	1370.47473	-1058.43005	28.23633	1649.11389	-1117.87708	684.48645	1646.11035	-1083.13660	481.29724	1636.53003	-1174.19482	318.79727	1599.63318	-1234.07678	135.90529	1534.47278	-1256.46960	82.96482	1670.57410	-1124.22852	45.82439	1443.23535	-1117.90063	1805.44153	-3357.41870	2845.74414	1034.26758						 
4	0.030	1359.53760	-1012.19696	1729.65393	1502.88196	-1021.68878	1713.17114	1344.92456	-1147.70081	1666.29321	1486.18921	-1169.62183	1648.75378	1411.50342	-1214.34106	1526.08740	1411.68445	-1276.86243	1251.76697	1408.69751	-1078.07446	1455.10535	1421.31995	-1030.29614	1282.39551	1473.17419	-1281.73804	1353.22070	1236.24500	-1132.30420	1499.65662	1148.52051	-1113.77466	1300.99182	1134.25110	-1085.13818	1161.23975	1131.00732	-1033.14526	1038.36292	1179.42114	-945.88977	940.79639	1139.32666	-983.82123	926.25525	1141.76807	-943.03125	874.19452	1601.75842	-1148.07397	1489.79346	1686.90479	-1176.75952	1300.17554	1709.37024	-1155.99756	1154.73657	1727.88367	-1104.74658	1045.36060	1705.91260	-1029.13000	933.42139	1735.73401	-1073.92993	917.71777	1740.03467	-1022.09265	867.64935	1293.16541	-1044.62610	982.56573	1548.07825	-1060.66980	977.38776	1359.63318	-1257.40967	1030.27722	1474.43982	-1270.67163	1032.00574	1262.03442	-1111.49646	666.62183	1304.67358	-1151.14404	467.62109	1314.75867	-1211.04504	281.21927	1369.79895	-1214.22351	62.00166	1419.74829	-1255.17651	35.77297	1370.41406	-1058.31274	28.19610	1649.06897	-1105.95996	685.17175	1645.34375	-1069.18005	481.73907	1638.62488	-1155.46802	316.26041	1603.86768	-1210.29041	131.44716	1539.71704	-1232.72974	77.45069	1672.50952	-1095.56848	45.61257	1443.81128	-1111.59424	1805.00403	-3357.30640	2845.69458	1034.31116						 
